<?xml version="1.0" encoding="UTF-8"?>
<svg id="Layer_1" data-name="Layer 1" xmlns="http://www.w3.org/2000/svg" viewBox="0 0 550 250">
  <defs>
    <style>
      .cls-1 {
        fill: #000;
      }

      .cls-1, .cls-2 {
        stroke-width: 0px;
      }

      .cls-2 {
        fill: #7473ff;
      }
    </style>
  </defs>
  <g>
    <path class="cls-1" d="M137.32,104.76l3.82-5.12v53.38h-8.57v-55.9h23.38c4.41,0,8.01.64,10.81,1.91,2.79,1.27,4.86,3.12,6.2,5.54,1.33,2.42,2,5.25,2,8.48,0,3.54-.78,6.54-2.33,8.99-1.55,2.45-3.79,4.35-6.71,5.68-2.92,1.34-6.46,2-10.62,2h-17.89v-7.73h17.7c3.6,0,6.4-.76,8.38-2.28,1.99-1.52,2.98-3.68,2.98-6.47,0-1.74-.34-3.24-1.03-4.52-.68-1.27-1.83-2.25-3.45-2.93-1.62-.68-3.79-1.02-6.52-1.02h-18.17ZM159.4,126.93l19.19,25.9v.19h-10.43l-17.05-24.69,8.29-1.4Z"/>
    <path class="cls-1" d="M202.54,154.04c-4.47,0-8.38-.87-11.74-2.61s-5.93-4.3-7.73-7.69c-1.8-3.38-2.7-7.44-2.7-12.16s.92-9.08,2.75-12.53c1.83-3.45,4.41-6.09,7.73-7.92,3.32-1.83,7.19-2.75,11.6-2.75s7.92.85,10.9,2.56c2.98,1.71,5.23,4.08,6.75,7.13,1.52,3.04,2.28,6.55,2.28,10.53v2.42c0,.87-.06,1.8-.19,2.79h-36.33v-6.33h31.02l-2.05,2.52c.12-4.66-.85-8.26-2.93-10.81-2.08-2.55-5.33-3.82-9.74-3.82s-7.66,1.32-10.11,3.96c-2.45,2.64-3.68,6.63-3.68,11.97,0,5.03,1.23,8.88,3.68,11.55,2.45,2.67,5.98,4.01,10.57,4.01,2.61,0,4.72-.39,6.33-1.17,1.61-.78,2.9-1.86,3.87-3.26.96-1.4,1.69-2.9,2.19-4.52l7.08,2.05c-.75,2.86-1.94,5.34-3.59,7.45-1.65,2.11-3.79,3.74-6.43,4.89-2.64,1.15-5.82,1.72-9.55,1.72Z"/>
    <path class="cls-1" d="M247.35,154.13c-4.47,0-8.09-.64-10.85-1.91-2.76-1.27-4.86-3.07-6.29-5.4-1.43-2.33-2.45-4.98-3.07-7.96l7.64-1.49c.5,1.99,1.21,3.76,2.14,5.31.93,1.55,2.25,2.78,3.96,3.68,1.71.9,3.93,1.35,6.66,1.35,3.04,0,5.31-.59,6.8-1.77,1.49-1.18,2.27-2.76,2.33-4.75,0-1.24-.34-2.3-1.02-3.17-.68-.87-1.9-1.61-3.63-2.24-1.74-.62-4.16-1.18-7.27-1.68-3.79-.75-6.82-1.69-9.08-2.84-2.27-1.15-3.93-2.56-4.98-4.24-1.06-1.68-1.58-3.66-1.58-5.96,0-3.73,1.4-6.77,4.19-9.13s6.86-3.54,12.2-3.54c3.79,0,6.91.53,9.36,1.58,2.45,1.06,4.35,2.61,5.68,4.66,1.33,2.05,2.34,4.5,3.03,7.36l-7.73,1.77c-.81-3.17-2-5.46-3.59-6.89-1.58-1.43-3.81-2.14-6.66-2.14s-4.89.53-6.29,1.58c-1.4,1.06-2.1,2.49-2.1,4.29,0,1.18.31,2.25.93,3.21.62.96,1.74,1.77,3.35,2.42,1.61.65,3.91,1.26,6.89,1.82,3.97.62,7.16,1.52,9.55,2.7,2.39,1.18,4.11,2.64,5.17,4.38,1.06,1.74,1.58,3.7,1.58,5.87,0,2.67-.64,4.98-1.91,6.94-1.27,1.96-3.18,3.48-5.73,4.56-2.55,1.09-5.78,1.63-9.69,1.63Z"/>
    <path class="cls-1" d="M292.06,154.13c-4.6,0-8.56-.93-11.88-2.79-3.32-1.86-5.87-4.52-7.64-7.97-1.77-3.45-2.65-7.53-2.65-12.25s.95-8.86,2.84-12.25c1.89-3.38,4.5-5.98,7.83-7.78,3.32-1.8,7.16-2.7,11.5-2.7s8.18.9,11.51,2.7c3.32,1.8,5.9,4.39,7.73,7.78,1.83,3.39,2.75,7.47,2.75,12.25,0,7.08-1.94,12.69-5.82,16.82-3.88,4.13-9.27,6.2-16.16,6.2ZM292.06,115.84c-4.41,0-7.86,1.37-10.34,4.1-2.48,2.73-3.73,6.43-3.73,11.09,0,3.11.54,5.82,1.63,8.15,1.09,2.33,2.67,4.16,4.75,5.5,2.08,1.34,4.61,2,7.59,2,4.47,0,7.92-1.44,10.34-4.33s3.63-6.66,3.63-11.32c0-3.1-.56-5.81-1.68-8.11-1.12-2.3-2.72-4.05-4.8-5.26-2.08-1.21-4.55-1.82-7.41-1.82Z"/>
    <path class="cls-1" d="M327.84,121.25h2.33l-1.4,4.47c.19-3.97.98-7.25,2.38-9.83,1.4-2.58,3.25-4.47,5.54-5.68,2.3-1.21,4.88-1.82,7.73-1.82,3.73,0,6.71.76,8.94,2.28,2.24,1.52,3.83,3.54,4.8,6.06.96,2.51,1.44,5.33,1.44,8.43v27.86h-8.11v-25.9c0-1.99-.31-3.83-.93-5.54-.62-1.71-1.71-3.1-3.26-4.19-1.55-1.09-3.63-1.63-6.24-1.63-2.42,0-4.53.47-6.33,1.4-1.8.93-3.18,2.22-4.15,3.87-.96,1.65-1.44,3.68-1.44,6.1v25.9h-8.11v-43.51h8.11v14.91l-1.3-3.17Z"/>
    <path class="cls-1" d="M381.41,153.95c-2.79,0-5.23-.47-7.31-1.4-2.08-.93-3.7-2.28-4.84-4.05-1.15-1.77-1.72-4.05-1.72-6.85,0-3.85,1.24-7.03,3.73-9.55,2.48-2.52,6.37-3.77,11.65-3.77h15.56v6.33h-14.44c-2.73,0-4.84.5-6.33,1.49-1.49.99-2.24,2.48-2.24,4.47,0,1.06.28,2.11.84,3.17.56,1.06,1.46,1.88,2.7,2.47,1.24.59,2.89.88,4.94.88,2.73,0,5.08-.43,7.03-1.3,1.96-.87,3.45-2.08,4.47-3.63,1.03-1.55,1.54-3.35,1.54-5.4v-10.71c0-3.42-.7-6.04-2.1-7.87-1.4-1.83-3.87-2.75-7.41-2.75-3.11,0-5.54.78-7.31,2.33-1.77,1.55-2.97,4.13-3.59,7.73l-7.64-1.21c.43-3.35,1.41-6.2,2.93-8.52,1.52-2.33,3.59-4.13,6.2-5.4,2.61-1.27,5.84-1.91,9.69-1.91s7.33.68,9.88,2.05c2.55,1.37,4.42,3.34,5.64,5.92,1.21,2.58,1.82,5.73,1.82,9.46v27.11h-8.11v-12.95l1.77,1.86h-2.42l1.3-6.06c-.06,3.98-.79,7.31-2.19,10.01-1.4,2.7-3.29,4.72-5.68,6.06-2.39,1.33-5.17,2-8.34,2Z"/>
    <path class="cls-1" d="M421,121.25h2.33l-1.4,4.47c.19-3.97.98-7.25,2.38-9.83,1.4-2.58,3.25-4.47,5.54-5.68,2.3-1.21,4.88-1.82,7.73-1.82,3.73,0,6.71.76,8.94,2.28,2.24,1.52,3.83,3.54,4.8,6.06.96,2.51,1.44,5.33,1.44,8.43v27.86h-8.11v-25.9c0-1.99-.31-3.83-.93-5.54-.62-1.71-1.71-3.1-3.26-4.19-1.55-1.09-3.63-1.63-6.24-1.63-2.42,0-4.53.47-6.33,1.4-1.8.93-3.18,2.22-4.15,3.87-.96,1.65-1.44,3.68-1.44,6.1v25.9h-8.11v-43.51h8.11v14.91l-1.3-3.17Z"/>
    <path class="cls-1" d="M458.36,109.51h28.51v6.99h-28.51v-6.99ZM464.97,140.07v-42.58h8.01v41.46c0,2.42.53,4.24,1.58,5.45,1.06,1.21,2.76,1.82,5.12,1.82,1.18,0,2.28-.08,3.31-.23,1.02-.15,2.16-.42,3.4-.79l1.02,7.45c-.99.31-1.96.57-2.89.79-.93.22-1.91.39-2.93.51-1.02.12-2.22.19-3.59.19-2.98,0-5.45-.62-7.41-1.86-1.96-1.24-3.39-2.92-4.29-5.03-.9-2.11-1.35-4.5-1.35-7.17Z"/>
  </g>
  <g>
    <path class="cls-2" d="M104.35,152.84c-7.69,0-13.92-6.23-13.92-13.92h0c0-7.69,6.23-13.91,13.92-13.91h0c3.85,0,7.33-1.56,9.85-4.08,2.52-2.52,4.08-6,4.08-9.84,0-.96-.1-1.9-.28-2.81-1.3-6.34-6.91-11.12-13.64-11.12h0c-7.69,0-13.92-6.23-13.92-13.92h0c0-7.69-6.23-13.92-13.92-13.92s-13.92,6.23-13.92,13.92,6.23,13.92,13.92,13.92,13.9,6.22,13.92,13.89c0,.01,0,.02,0,.03,0,7.69-6.23,13.92-13.92,13.92h0c-3.84,0-7.32,1.56-9.84,4.08-2.52,2.52-4.08,6-4.08,9.84,0,7.69,6.23,13.92,13.92,13.92,0,0,0,0,0,0h0c7.69,0,13.92,6.23,13.92,13.92h0c0,7.69,6.23,13.92,13.92,13.92s13.92-6.23,13.92-13.92-6.23-13.92-13.92-13.92Z"/>
    <path class="cls-2" d="M81.85,111.08c0-3.09-2.5-5.59-5.59-5.59s-5.59,2.5-5.59,5.59,2.5,5.59,5.59,5.59,5.59-2.5,5.59-5.59Z"/>
  </g>
</svg>