<?xml version="1.0" encoding="UTF-8"?>
<svg id="Layer_1" data-name="Layer 1" xmlns="http://www.w3.org/2000/svg" viewBox="0 0 300 300">
  <defs>
    <style>
      .cls-1 {
        stroke: #7473ff;
      }

      .cls-1, .cls-2 {
        fill: none;
        stroke-linejoin: round;
        stroke-width: 6.4px;
      }

      .cls-2 {
        stroke: #c8c7ff;
      }
    </style>
  </defs>
  <polyline class="cls-1" points="87.66 162.23 69.87 180.02 69.87 234.15"/>
  <polyline class="cls-1" points="131.27 65.85 131.27 118.62 113.01 136.87"/>
  <line class="cls-2" x1="67.2" y1="113.79" x2="97.9" y2="113.79"/>
  <line class="cls-1" x1="69.87" y1="91.81" x2="116.88" y2="91.81"/>
  <line class="cls-1" x1="101.53" y1="207.93" x2="132.23" y2="207.93"/>
  <line class="cls-1" x1="68.91" y1="207.93" x2="85.22" y2="207.93"/>
  <line class="cls-2" x1="86.61" y1="185.87" x2="131.27" y2="185.87"/>
  <polyline class="cls-1" points="185.79 162.23 168 180.02 168 234.15"/>
  <line class="cls-1" x1="195.8" y1="113.79" x2="226.5" y2="113.79"/>
  <line class="cls-2" x1="185.79" y1="91.81" x2="231.8" y2="91.81"/>
  <line class="cls-1" x1="184.74" y1="185.87" x2="229.4" y2="185.87"/>
  <line class="cls-1" x1="170.59" y1="207.93" x2="193.68" y2="207.93"/>
  <line class="cls-2" x1="216.33" y1="207.93" x2="229.4" y2="207.93"/>
  <polyline class="cls-1" points="229.4 65.85 229.4 118.62 211.15 136.87"/>
  <polyline class="cls-1" points="69.87 65.85 69.87 118.62 131.27 180.02 131.27 234.15"/>
  <polyline class="cls-1" points="168 65.85 168 118.62 229.4 180.02 229.4 234.15"/>
</svg>