<?xml version="1.0" encoding="UTF-8"?>
<svg id="Layer_1" data-name="Layer 1" xmlns="http://www.w3.org/2000/svg" viewBox="0 0 300 300">
  <defs>
    <style>
      .cls-1 {
        fill: none;
        stroke: #7473ff;
        stroke-linejoin: round;
        stroke-width: 6.4px;
      }

      .cls-2 {
        fill: #c8c7ff;
        stroke-width: 0px;
      }
    </style>
  </defs>
  <path class="cls-2" d="M129.13,188.89v28.27c0,7.05-5.74,12.79-12.79,12.79s-12.79-5.74-12.79-12.79c0-2.5.73-4.83,1.98-6.81l-.78-.68-3.6-3.16-.94-.83c-2.65,1.49-5.7,2.36-8.96,2.36-10.1,0-18.32-8.22-18.32-18.32,0-8.06,5.24-14.91,12.49-17.35l-.14-1-.67-4.81-.14-1.02c-9.25-.76-16.55-8.52-16.55-17.96,0-9.95,8.09-18.04,18.04-18.04,1.07,0,2.11.11,3.13.29l.02-.11,1.12-5.57.02-.1c-6.74-1.74-11.74-7.86-11.74-15.13,0-8.63,7.02-15.65,15.65-15.65,4.03,0,7.69,1.54,10.47,4.05l.04-.06,3.45-4.58.02-.03c-2.81-2.35-4.6-5.87-4.6-9.81,0-7.05,5.74-12.79,12.79-12.79s12.79,5.74,12.79,12.79v27.86h5.79v-27.86c0-10.24-8.33-18.57-18.57-18.57s-18.57,8.33-18.57,18.57c0,1.76.26,3.46.72,5.08-1.39-.29-2.84-.44-4.31-.44-11.82,0-21.43,9.61-21.43,21.43,0,6.2,2.67,11.78,6.89,15.7-10.07,2.78-17.49,12.02-17.49,22.96,0,10.19,6.43,18.9,15.45,22.3-6.3,4.35-10.44,11.62-10.44,19.84,0,13.29,10.81,24.1,24.1,24.1,2.45,0,4.82-.37,7.06-1.06-.34,1.41-.55,2.88-.55,4.39,0,10.24,8.33,18.57,18.57,18.57s18.57-8.33,18.57-18.57v-28.27h-5.79Z"/>
  <polygon class="cls-1" points="150.85 171.33 150.85 215.23 197.9 215.23 197.9 171.6 237.85 171.6 237.85 128.11 197.9 128.11 197.9 84.77 150.85 84.77 150.85 127.83 110.54 127.83 110.54 171.1 150.85 171.33"/>
</svg>